<?xml version="1.0" standalone="no"?>
<!DOCTYPE svg PUBLIC "-//W3C//DTD SVG 20010904//EN"
 "http://www.w3.org/TR/2001/REC-SVG-20010904/DTD/svg10.dtd">
<svg version="1.0" xmlns="http://www.w3.org/2000/svg"
 width="700.000000pt" height="700.000000pt" viewBox="0 0 700.000000 700.000000"
 preserveAspectRatio="xMidYMid meet">
<metadata>
Created by potrace 1.11, written by Peter Selinger 2001-2013
</metadata>
<g transform="translate(0.000000,700.000000) scale(0.100000,-0.100000)"
fill="#000000" stroke="none">
<path d="M712 6278 c-9 -9 -12 -86 -12 -284 0 -259 1 -274 19 -286 20 -14 20
-14 0 -26 -19 -12 -19 -33 -19 -886 0 -730 2 -875 14 -885 9 -8 78 -11 227 -9
l214 3 3 879 c1 580 -1 883 -8 890 -5 5 -10 14 -10 18 0 5 109 7 243 6 l242
-3 5 -895 c3 -492 6 -896 8 -897 1 -2 98 -3 216 -3 167 0 216 3 225 13 8 10
12 265 13 898 l3 884 242 3 c160 1 243 -1 243 -8 0 -5 -5 -10 -10 -10 -7 0 -9
-298 -8 -887 l3 -888 215 -3 c193 -2 216 -1 227 15 10 13 13 205 13 880 0 809
-1 864 -17 881 -17 16 -17 18 0 35 15 15 17 43 17 278 0 160 -4 268 -10 280
-10 19 -34 19 -1148 19 -872 0 -1141 -3 -1150 -12z"/>
<path d="M3992 6278 c-9 -9 -12 -287 -12 -1190 0 -1154 0 -1178 19 -1188 12
-6 98 -10 210 -10 175 0 193 2 210 19 17 17 21 18 32 5 10 -12 143 -14 913
-14 688 0 905 3 914 12 9 9 12 72 12 223 0 151 -3 214 -12 223 -17 17 -1809
17 -1826 0 -9 -9 -12 47 -12 256 l0 267 22 -15 c20 -14 122 -16 903 -16 781 0
883 2 903 16 22 15 22 19 22 228 0 151 -3 215 -12 224 -17 17 -1809 17 -1826
0 -9 -9 -12 47 -12 256 l0 267 22 -15 c20 -14 122 -16 903 -16 781 0 883 2
903 16 22 15 22 19 22 228 0 151 -3 215 -12 224 -9 9 -226 12 -914 12 -805 0
-903 -2 -915 -16 -11 -14 -13 -14 -21 0 -8 14 -39 16 -216 16 -149 0 -211 -3
-220 -12z"/>
<path d="M1176 3078 c-9 -12 -16 -34 -16 -48 0 -14 -102 -504 -227 -1089 -164
-771 -224 -1068 -216 -1080 7 -12 367 -146 403 -150 24 -3 39 48 99 330 l68
314 571 3 c537 2 571 1 576 -15 3 -10 30 -137 61 -283 68 -324 72 -337 89
-343 8 -3 103 24 211 60 155 51 198 70 206 87 7 16 -45 278 -215 1071 -123
578 -227 1070 -231 1095 -4 25 -12 51 -17 58 -8 9 -156 12 -679 12 l-668 0
-15 -22z m1070 -848 c33 -157 59 -288 57 -292 -5 -10 -880 -10 -886 0 -3 4 23
136 56 295 l62 287 325 -2 325 -3 61 -285z"/>
<path d="M3992 3088 c-17 -17 -17 -2359 0 -2376 9 -9 70 -12 214 -12 166 0
204 3 214 15 11 13 15 13 33 0 19 -13 141 -15 910 -15 593 0 895 3 908 10 18
10 19 23 19 230 0 207 -1 220 -19 230 -27 14 -1785 14 -1812 0 -19 -11 -19 3
-19 943 0 911 -1 955 -18 970 -16 15 -46 17 -218 17 -142 0 -203 -3 -212 -12z"/>
</g>
</svg>
