<svg width="25" height="24" viewBox="0 0 25 24" fill="none" 
    xmlns="http://www.w3.org/2000/svg">
    <path d="M20.9467 20.452H17.3933V14.8827C17.3933 13.5547 17.3667 11.8453 15.54 11.8453C13.688 11.8453 13.4053 13.2907 13.4053 14.7853V20.452H9.85067V9H13.264V10.56H13.3107C13.788 9.66133 14.948 8.71067 16.6813 8.71067C20.2813 8.71067 20.948 11.0813 20.948 14.1653V20.452H20.9467ZM5.83733 7.43333C5.56607 7.43368 5.29741 7.38049 5.04675 7.27681C4.79609 7.17312 4.56836 7.02099 4.37661 6.82911C4.18486 6.63724 4.03287 6.40941 3.92935 6.15868C3.82582 5.90795 3.77281 5.63926 3.77333 5.368C3.7736 4.95978 3.89491 4.5608 4.12192 4.22153C4.34894 3.88225 4.67146 3.61791 5.04871 3.46194C5.42595 3.30596 5.84098 3.26536 6.24131 3.34525C6.64163 3.42515 7.00927 3.62197 7.29774 3.91081C7.58621 4.19965 7.78255 4.56755 7.86193 4.96798C7.94131 5.3684 7.90017 5.78338 7.74371 6.16042C7.58725 6.53747 7.32249 6.85965 6.98292 7.08623C6.64335 7.3128 6.24422 7.4336 5.836 7.43333H5.83733ZM7.61867 20.452H4.05467V9H7.62V20.452H7.61867ZM22.7267 0H2.272C1.29067 0 0.5 0.773333 0.5 1.72933V22.2707C0.5 23.2267 1.292 24 2.27067 24H22.7213C23.7 24 24.5 23.2267 24.5 22.2707V1.72933C24.5 0.773333 23.7 0 22.7213 0H22.7253H22.7267Z" fill="white"/>
</svg>
