<svg width="34" height="33" viewBox="0 0 34 33" fill="none" xmlns="http://www.w3.org/2000/svg">
<path d="M16.9999 0.333313C7.79159 0.333313 0.333254 7.79165 0.333254 17C0.331364 20.4988 1.43128 23.9093 3.47695 26.7478C5.52262 29.5862 8.41016 31.7084 11.7299 32.8133C12.5633 32.9583 12.8749 32.4583 12.8749 32.02C12.8749 31.625 12.8533 30.3133 12.8533 28.9166C8.66659 29.6883 7.58326 27.8966 7.24992 26.9583C7.06159 26.4783 6.24992 25 5.54159 24.6033C4.95825 24.2916 4.12492 23.52 5.51992 23.5C6.83326 23.4783 7.76992 24.7083 8.08326 25.2083C9.58326 27.7283 11.9799 27.02 12.9366 26.5833C13.0833 25.5 13.5199 24.7716 13.9999 24.355C10.2916 23.9383 6.41659 22.5 6.41659 16.125C6.41659 14.3116 7.06159 12.8133 8.12492 11.645C7.95826 11.2283 7.37492 9.51998 8.29159 7.22831C8.29159 7.22831 9.68659 6.79165 12.8749 8.93831C14.2317 8.56175 15.6335 8.37222 17.0416 8.37498C18.4583 8.37498 19.8749 8.56165 21.2083 8.93665C24.3949 6.76998 25.7916 7.22998 25.7916 7.22998C26.7083 9.52165 26.1249 11.23 25.9583 11.6466C27.0199 12.8133 27.6666 14.2916 27.6666 16.125C27.6666 22.5216 23.7716 23.9383 20.0633 24.355C20.6666 24.875 21.1883 25.875 21.1883 27.4383C21.1883 29.6666 21.1666 31.4583 21.1666 32.0216C21.1666 32.4583 21.4799 32.9783 22.3133 32.8116C25.6216 31.6946 28.4965 29.5683 30.5331 26.7319C32.5697 23.8955 33.6656 20.4918 33.6666 17C33.6666 7.79165 26.2083 0.333313 16.9999 0.333313Z" fill="#2C056A"/>
</svg>
