<svg width="20" height="20" viewBox="0 0 20 20" fill="none" 
    xmlns="http://www.w3.org/2000/svg">
    <path d="M10 3.05176e-05C4.477 3.05176e-05 0 4.47703 0 10C0 14.991 3.657 19.128 8.438 19.879V12.89H5.898V10H8.438V7.79703C8.438 5.29103 9.93 3.90703 12.215 3.90703C13.309 3.90703 14.453 4.10203 14.453 4.10203V6.56203H13.193C11.95 6.56203 11.563 7.33303 11.563 8.12403V10H14.336L13.893 12.89H11.563V19.879C16.343 19.129 20 14.99 20 10C20 4.47703 15.523 3.05176e-05 10 3.05176e-05Z" fill="white"/>
</svg>
