<svg width="24" height="24" viewBox="0 0 24 24" fill="none" xmlns="http://www.w3.org/2000/svg">
<rect width="24" height="24" fill="white"/>
<path d="M22.1619 5.65597C21.3985 5.99367 20.5889 6.21545 19.7599 6.31397C20.6337 5.79141 21.2876 4.96899 21.5999 3.99997C20.7799 4.48797 19.8809 4.82997 18.9439 5.01497C18.3145 4.34155 17.4803 3.89494 16.5709 3.74456C15.6615 3.59418 14.7279 3.74846 13.9152 4.18343C13.1025 4.61839 12.4563 5.30966 12.077 6.14977C11.6978 6.98987 11.6067 7.93175 11.8179 8.82897C10.155 8.74563 8.52826 8.3135 7.04322 7.56064C5.55817 6.80778 4.24806 5.75102 3.19793 4.45897C2.82622 5.09742 2.63089 5.8232 2.63193 6.56197C2.63193 8.01197 3.36993 9.29297 4.49193 10.043C3.82794 10.0221 3.17856 9.84275 2.59793 9.51997V9.57197C2.59813 10.5377 2.9323 11.4736 3.54378 12.221C4.15526 12.9685 5.00641 13.4814 5.95293 13.673C5.33655 13.84 4.69024 13.8646 4.06293 13.745C4.3298 14.5762 4.84994 15.3032 5.55052 15.8241C6.25111 16.345 7.09706 16.6338 7.96993 16.65C7.10241 17.3313 6.10911 17.835 5.04681 18.1321C3.98451 18.4293 2.87406 18.5142 1.77893 18.382C3.69063 19.6114 5.91603 20.2641 8.18893 20.262C15.8819 20.262 20.0889 13.889 20.0889 8.36197C20.0889 8.18197 20.0839 7.99997 20.0759 7.82197C20.8948 7.23014 21.6015 6.49699 22.1629 5.65697L22.1619 5.65597Z" fill="#2C056A"/>
</svg>
