<svg width="21" height="20" viewBox="0 0 21 20" fill="none" xmlns="http://www.w3.org/2000/svg">
<path d="M6.4241 4.70311C7.69429 3.60247 9.31929 2.99766 11 3.00001C14.8661 3.00001 18 6.13391 18 10C18 11.4952 17.531 12.8812 16.733 14.018L14.5 10H16.6C16.6001 8.90214 16.2775 7.82847 15.6723 6.91249C15.0671 5.9965 14.206 5.27862 13.196 4.84809C12.1861 4.41757 11.0719 4.2934 9.99197 4.49102C8.91204 4.68864 7.91402 5.19934 7.122 5.95961L6.4241 4.70311ZM15.5759 15.2969C14.3057 16.3975 12.6807 17.0024 11 17C7.1339 17 4 13.8661 4 10C4 8.50481 4.469 7.11881 5.267 5.98201L7.5 10H5.4C5.39991 11.0979 5.72253 12.1715 6.32774 13.0875C6.93294 14.0035 7.79405 14.7214 8.80397 15.1519C9.8139 15.5824 10.9281 15.7066 12.008 15.509C13.088 15.3114 14.086 14.8007 14.878 14.0404L15.5759 15.2969Z" fill="white"/>
</svg>
