<svg width="20" height="20" viewBox="0 0 20 20" fill="none" 
    xmlns="http://www.w3.org/2000/svg">
    <path d="M9.99988 6.10352e-05C4.47488 6.10352e-05 -0.000120611 4.47506 -0.000120611 10.0001C-0.00125483 12.0993 0.658693 14.1457 1.8861 15.8487C3.1135 17.5518 4.84603 18.8251 6.83788 19.4881C7.33788 19.5751 7.52488 19.2751 7.52488 19.0121C7.52488 18.7751 7.51188 17.9881 7.51188 17.1501C4.99988 17.6131 4.34988 16.5381 4.14988 15.9751C4.03688 15.6871 3.54988 14.8001 3.12488 14.5621C2.77488 14.3751 2.27488 13.9121 3.11188 13.9001C3.89988 13.8871 4.46188 14.6251 4.64988 14.9251C5.54988 16.4371 6.98788 16.0121 7.56188 15.7501C7.64988 15.1001 7.91188 14.6631 8.19988 14.4131C5.97488 14.1631 3.64988 13.3001 3.64988 9.47506C3.64988 8.38706 4.03688 7.48806 4.67488 6.78706C4.57488 6.53706 4.22488 5.51206 4.77488 4.13706C4.77488 4.13706 5.61188 3.87506 7.52488 5.16306C8.33894 4.93712 9.18005 4.8234 10.0249 4.82506C10.8749 4.82506 11.7249 4.93706 12.5249 5.16206C14.4369 3.86206 15.2749 4.13806 15.2749 4.13806C15.8249 5.51306 15.4749 6.53806 15.3749 6.78806C16.0119 7.48806 16.3999 8.37506 16.3999 9.47506C16.3999 13.3131 14.0629 14.1631 11.8379 14.4131C12.1999 14.7251 12.5129 15.3251 12.5129 16.2631C12.5129 17.6001 12.4999 18.6751 12.4999 19.0131C12.4999 19.2751 12.6879 19.5871 13.1879 19.4871C15.1729 18.8169 16.8978 17.5411 18.1198 15.8392C19.3418 14.1374 19.9993 12.0952 19.9999 10.0001C19.9999 4.47506 15.5249 6.10352e-05 9.99988 6.10352e-05Z" fill="white"/>
</svg>
