<svg width="24" height="24" viewBox="0 0 24 24" fill="none" xmlns="http://www.w3.org/2000/svg">
<rect width="24" height="24" fill="white"/>
<path d="M11.9999 2.00006C6.47488 2.00006 1.99988 6.47506 1.99988 12.0001C1.99875 14.0993 2.65869 16.1457 3.8861 17.8487C5.1135 19.5518 6.84603 20.8251 8.83788 21.4881C9.33788 21.5751 9.52488 21.2751 9.52488 21.0121C9.52488 20.7751 9.51188 19.9881 9.51188 19.1501C6.99988 19.6131 6.34988 18.5381 6.14988 17.9751C6.03688 17.6871 5.54988 16.8001 5.12488 16.5621C4.77488 16.3751 4.27488 15.9121 5.11188 15.9001C5.89988 15.8871 6.46188 16.6251 6.64988 16.9251C7.54988 18.4371 8.98788 18.0121 9.56188 17.7501C9.64988 17.1001 9.91188 16.6631 10.1999 16.4131C7.97488 16.1631 5.64988 15.3001 5.64988 11.4751C5.64988 10.3871 6.03688 9.48806 6.67488 8.78706C6.57488 8.53706 6.22488 7.51206 6.77488 6.13706C6.77488 6.13706 7.61188 5.87506 9.52488 7.16306C10.3389 6.93712 11.18 6.8234 12.0249 6.82506C12.8749 6.82506 13.7249 6.93706 14.5249 7.16206C16.4369 5.86206 17.2749 6.13806 17.2749 6.13806C17.8249 7.51306 17.4749 8.53806 17.3749 8.78806C18.0119 9.48806 18.3999 10.3751 18.3999 11.4751C18.3999 15.3131 16.0629 16.1631 13.8379 16.4131C14.1999 16.7251 14.5129 17.3251 14.5129 18.2631C14.5129 19.6001 14.4999 20.6751 14.4999 21.0131C14.4999 21.2751 14.6879 21.5871 15.1879 21.4871C17.1729 20.8169 18.8978 19.5411 20.1198 17.8392C21.3418 16.1374 21.9993 14.0952 21.9999 12.0001C21.9999 6.47506 17.5249 2.00006 11.9999 2.00006Z" fill="#2C056A"/>
</svg>
