<svg width="24" height="24" viewBox="0 0 24 24" fill="none" xmlns="http://www.w3.org/2000/svg">
<rect width="24" height="24" fill="white"/>
<path d="M12 2.00003C6.477 2.00003 2 6.47703 2 12C2 16.991 5.657 21.128 10.438 21.879V14.89H7.898V12H10.438V9.79703C10.438 7.29103 11.93 5.90703 14.215 5.90703C15.309 5.90703 16.453 6.10203 16.453 6.10203V8.56203H15.193C13.95 8.56203 13.563 9.33303 13.563 10.124V12H16.336L15.893 14.89H13.563V21.879C18.343 21.129 22 16.99 22 12C22 6.47703 17.523 2.00003 12 2.00003Z" fill="white"/>
</svg>
