<svg width="24" height="24" viewBox="0 0 24 24" fill="none" xmlns="http://www.w3.org/2000/svg">
<rect width="24" height="24" fill="white"/>
<path d="M10.7384 7.18755C10.7384 6.96415 10.8046 6.74576 10.9287 6.56001C11.0528 6.37426 11.2292 6.22949 11.4356 6.144C11.642 6.05851 11.8692 6.03614 12.0883 6.07973C12.3074 6.12331 12.5086 6.23089 12.6666 6.38886C12.8246 6.54683 12.9322 6.7481 12.9757 6.96721C13.0193 7.18632 12.9969 7.41344 12.9115 7.61983C12.826 7.82623 12.6812 8.00264 12.4954 8.12675C12.3097 8.25087 12.0913 8.31711 11.8679 8.31711C11.5683 8.3171 11.281 8.19809 11.0692 7.98626C10.8574 7.77443 10.7384 7.48712 10.7384 7.18755ZM13.6342 16.8226C13.3145 16.7202 12.9238 16.4196 12.9238 15.5625V9.93537C12.9238 9.91538 12.9199 9.89559 12.9123 9.87712C12.9046 9.85865 12.8934 9.84186 12.8793 9.82772C12.8652 9.81357 12.8484 9.80235 12.83 9.79468C12.8115 9.78702 12.7917 9.78307 12.7717 9.78305H10.5286C10.4535 9.78306 10.3792 9.79787 10.3098 9.82661C10.2405 9.85536 10.1775 9.89749 10.1244 9.95059C10.0713 10.0037 10.0292 10.0667 10.0005 10.1361C9.97177 10.2055 9.957 10.2798 9.95702 10.3549C9.95805 10.4778 9.99824 10.5971 10.0717 10.6956C10.1453 10.7941 10.2482 10.8666 10.3658 10.9025C10.6854 11.0049 11.0761 11.3055 11.0761 12.1626V15.5625C11.0761 16.4196 10.6854 16.7202 10.3656 16.8226C10.2481 16.8586 10.1451 16.931 10.0716 17.0295C9.99809 17.128 9.95791 17.2474 9.95688 17.3702C9.95688 17.4453 9.97167 17.5197 10.0004 17.589C10.0291 17.6584 10.0712 17.7214 10.1243 17.7745C10.1774 17.8276 10.2404 17.8697 10.3098 17.8985C10.3792 17.9272 10.4535 17.942 10.5286 17.942H13.4712C13.6228 17.942 13.7682 17.8817 13.8754 17.7745C13.9826 17.6673 14.0429 17.5219 14.0429 17.3702C14.0419 17.2474 14.0017 17.128 13.9282 17.0295C13.8547 16.931 13.7517 16.8586 13.6342 16.8226ZM21.9999 12C21.9999 13.9778 21.4134 15.9112 20.3146 17.5557C19.2158 19.2002 17.654 20.4819 15.8267 21.2388C13.9995 21.9957 11.9888 22.1937 10.049 21.8078C8.10917 21.422 6.32734 20.4696 4.92881 19.071C3.53029 17.6725 2.57788 15.8907 2.19203 13.9509C1.80618 12.0111 2.00421 10.0004 2.76109 8.17315C3.51796 6.34589 4.79969 4.7841 6.44418 3.68529C8.08867 2.58647 10.0221 1.99998 11.9999 1.99998C14.6511 2.00297 17.1929 3.0575 19.0676 4.93221C20.9424 6.80693 21.9969 9.34873 21.9999 12ZM20.6665 12C20.6665 10.2859 20.1583 8.61027 19.2059 7.18504C18.2536 5.75982 16.9001 4.64899 15.3165 3.99303C13.7328 3.33707 11.9903 3.16544 10.3091 3.49985C8.62793 3.83425 7.08368 4.65967 5.87162 5.87173C4.65957 7.08378 3.83415 8.62803 3.49974 10.3092C3.16534 11.9904 3.33697 13.7329 3.99293 15.3166C4.64889 16.9002 5.75971 18.2537 7.18494 19.2061C8.61017 20.1584 10.2858 20.6666 11.9999 20.6666C14.2976 20.6641 16.5005 19.7501 18.1253 18.1254C19.75 16.5006 20.664 14.2977 20.6665 12Z" fill="white"/>
</svg>
