<svg width="696" height="537" viewBox="0 0 696 537" fill="none" 
    xmlns="http://www.w3.org/2000/svg">
    <path fill-rule="evenodd" clip-rule="evenodd" d="M175.499 322.368C179.066 319.941 186.276 311.292 190.071 309.32C198.496 304.844 236.141 296.12 237.356 295.664C239.253 294.906 251.321 292.099 258.379 290.43C274.925 286.333 334.277 260.085 349.912 253.333C351.885 258.568 368.355 281.782 365.547 284.133C356.212 291.871 339.514 301.582 328.737 307.196C319.964 311.691 310.854 315.496 301.489 318.575C290.94 322.065 283.653 325.782 273.104 329.348C262.706 332.837 275.153 343.762 280.466 346.037C286.462 348.541 295.721 349.831 301.793 352.031C291.015 368.72 281.984 389.052 280.162 409.004C279.707 413.783 276.064 418.259 270.068 416.817C266.956 416.059 238.57 412.266 233.864 411.204C202.898 404.148 147.265 367.203 161.61 329.272C164.949 330.789 172.463 324.416 175.499 322.368Z" fill="#F17105"/>
    <path fill-rule="evenodd" clip-rule="evenodd" d="M192.803 121.256C195.08 121.028 201.076 116.476 197.964 114.125C194.776 111.697 192.499 119.587 192.803 121.256ZM72.2772 138.932C72.8844 138.856 72.5808 135.518 71.67 135.063C68.6341 133.697 68.4064 138.704 68.3305 140.07C68.2546 141.739 68.0269 146.518 71.67 145.229C73.7952 144.546 72.5049 140.222 72.2772 138.932ZM249.726 154.408C249.65 157.367 255.646 163.056 257.847 159.642C259.669 156.76 249.878 148.491 249.726 154.408ZM38.7304 87.8003C40.476 92.2004 48.9766 86.2072 49.3561 82.9451C49.9633 76.345 38.6545 83.4003 38.7304 87.8003ZM110.074 106.842C114.021 106.538 119.334 101.456 123.129 99.5591C125.709 98.2694 132.768 96.7521 133.603 93.8693C134.286 91.3659 122.294 96.7521 121.231 97.2073C116.526 99.4073 112.275 101.911 110.074 106.842ZM409.036 71.945C412.182 69.4245 416.085 68.0351 420.117 68.0001C422.166 68.076 426.417 69.2898 426.568 65.8001C426.796 60.1104 408.884 67.0898 406.076 68.1518C407.063 69.4415 408.049 70.6553 409.036 71.945ZM211.018 294.527C208.666 290.658 204.491 288.458 201.379 285.12C202.518 290.506 199.937 295.361 198.116 300.292C202.366 298.32 206.692 296.423 211.018 294.527ZM615.402 376.914C616.692 372.589 617.983 368.341 619.501 364.093C621.17 359.389 622.005 358.934 617.983 355.672L607.964 374.562C610.336 375.651 612.835 376.441 615.402 376.914ZM270.219 66.1035C265.817 61.0966 245.097 60.7931 247.677 71.7933C248.588 75.6623 253.673 71.5657 256.861 70.6553C259.973 69.8208 268.929 69.6691 270.219 66.1035ZM269.46 136.58C268.929 135.29 267.866 130.739 266.272 130.359C264.754 129.98 258.606 134.835 257.468 135.518C251.776 139.159 246.159 143.104 240.619 146.973C242.744 146.973 244.717 146.215 246.842 146.215C249.347 146.215 251.168 147.201 253.597 146.67C258.834 145.38 264.982 139.539 269.46 136.58ZM275.152 23.0134C275.683 20.7376 301.489 27.5652 304.601 28.8549C306.27 29.5377 314.999 34.0894 313.177 27.2618C312.114 23.3928 302.02 20.3582 298.756 19.2962C290.559 16.5651 281.831 14.6685 273.103 15.1237C271.433 15.1996 258.531 15.9582 263.919 21.1169C265.741 22.8617 272.42 22.3307 275.152 23.0134ZM280.845 335.72C285.702 338.072 290.559 339.893 295.645 341.789C297.846 342.624 301.337 344.748 303.842 344.217C305.891 343.762 306.498 340.727 307.561 338.603C311.344 331.354 316.149 324.686 321.829 318.803C319.173 316.83 305.587 325.479 302.248 326.692C298.908 327.982 295.72 329.272 292.457 330.789C289.345 332.155 283.197 333.444 280.845 335.72ZM366.154 271.464C373.212 268.278 379.815 262.664 385.584 257.581C392.187 251.816 398.107 245.747 402.964 238.236C400.08 238.388 393.629 247.719 393.553 237.554C393.553 232.319 400.687 227.236 402.888 222.381C397.348 219.271 392.338 237.857 386.039 233.381C379.967 229.057 389.53 214.112 391.428 209.408C387.86 207.057 367.52 233.609 364.56 237.023C362.738 239.147 358.336 241.954 357.35 244.457C356.742 245.898 356.666 250.602 356.97 251.968C357.577 254.774 360.765 258.188 362.131 260.843C363.96 264.179 365.314 267.754 366.154 271.464ZM656.615 367.279C650.543 358.707 656.842 354.989 661.776 347.858C665.811 342.159 669.197 336.026 671.87 329.575C678.17 313.644 683.786 298.927 686.898 282.085C682.648 284.058 679.991 291.416 677.866 295.285C674.982 300.52 672.477 305.982 669.29 311.065C663.37 320.548 657.45 330.713 649.936 338.906C646.52 342.624 643.56 346.796 639.614 350.21C637.792 351.727 634.377 353.017 633.011 354.913C631.72 356.734 633.162 357.872 632.707 360.072C632.252 362.272 629.975 364.624 628.988 366.824C627.698 369.631 626.559 372.438 625.117 375.169C623.822 377.483 623.021 380.04 622.764 382.679C622.309 385.865 623.675 386.245 620.943 389.128C626.028 391.328 631.113 393.603 636.122 395.803C637.868 396.562 639.538 397.321 641.283 398.079C641.663 397.397 642.042 396.714 642.346 396.031C643.712 394.666 645.002 391.328 645.837 389.583C649.101 382.148 652.82 374.714 656.615 367.279ZM167.225 331.32C152.805 369.176 203.429 401.038 234.547 408.093C238.873 409.079 243.047 410.369 247.374 411.431C252.079 412.569 256.178 412.342 260.883 412.797C264.602 413.176 266.348 416.059 269.839 416.817C275.683 418.107 275.304 413.707 275.759 409.004C277.505 389.052 287.751 369.783 298.529 353.093C293.595 351.348 288.738 349.375 283.88 347.479C279.706 345.81 273.331 341.182 268.853 340.955C265.513 340.803 260.504 343.61 257.316 344.824C251.98 346.875 246.532 348.623 240.998 350.058C231.207 352.486 220.354 355.9 210.26 356.127C207.375 356.203 199.33 357.569 197.281 355.748C193.258 352.334 198.799 349.451 202.138 348.237C222.1 340.955 243.275 337.844 263.236 330.334C273.558 326.465 283.729 322.217 294.051 318.423C303.007 315.161 312.342 312.279 320.919 308.258C332.303 302.947 343.764 296.347 353.631 288.533C355.604 286.94 359.702 284.664 361.069 282.389C362.283 280.416 362.131 282.389 361.828 279.961C361.676 278.216 359.551 275.864 358.64 274.271C355.342 268.198 352.452 261.913 349.987 255.457C334.277 262.209 319.325 271.388 303.766 278.595C288.131 285.878 270.598 290.961 253.901 295.058C246.766 296.802 238.645 297.334 232.118 300.747C229.386 302.189 226.578 303.858 223.618 304.768C222.707 306.437 221.872 306.741 221.037 305.754C220.786 305.466 220.467 305.246 220.109 305.113C219.751 304.981 219.366 304.94 218.988 304.996C217.135 305.419 215.329 306.029 213.599 306.816C205.023 310.154 196.826 314.327 188.629 318.575C184.758 320.623 180.811 322.596 177.092 324.872C175.135 326.042 173.326 327.443 171.703 329.044C169.882 331.092 170.337 332.761 167.225 331.32ZM491.082 106.463C494.725 106.538 498.064 104.566 501.859 104.642C507.855 104.794 512.561 109.421 515.976 113.897C522.807 122.697 521.061 133.318 517.646 143.256C516.01 147.992 513.738 152.484 510.891 156.608C508.386 160.249 503.908 163.739 502.163 167.76C499.279 174.436 505.123 171.629 508.614 170.187C513.085 168.454 517.278 166.077 521.061 163.132C537.986 149.704 550.813 130.966 555.139 109.497C557.264 99.028 557.113 86.7382 549.751 78.1657C543.072 70.3519 531.535 67.7725 521.668 69.2139C511.043 70.807 501.328 75.283 492.675 81.1244C490.171 82.7934 487.818 84.6899 485.465 86.5107C482.353 89.0141 480.532 89.0141 481.291 92.959C481.898 95.8418 483.416 98.8004 484.478 101.607C486.452 106.842 485.769 108.132 491.082 106.463ZM502.618 195.829L501.859 197.119C506.944 197.346 511.65 192.87 515.976 190.67C521.592 187.863 526.602 183.994 531.459 180.05C540.112 173.146 548.916 165.408 555.367 156.304C569.864 136.049 582.994 110.256 579.047 84.5382C574.797 56.8483 550.51 46.1516 524.704 49.793C513.016 51.462 502.618 56.6207 492.22 61.9311C486.983 64.5863 482.505 68.076 477.724 71.4139C475.219 73.1588 472.942 73.3864 472.79 76.4209C472.638 78.6968 476.585 83.8555 477.724 85.9796C490.778 72.6277 504.895 61.5518 524.704 60.869C548.233 60.0345 562.122 82.3382 562.046 103.732C561.97 124.67 552.938 144.773 538.518 159.87C531.99 166.698 525.767 172.16 517.722 177.167C513.699 179.67 510.739 181.87 506.261 183.539C503.073 184.677 503.453 184.07 502.618 187.029C501.935 189.457 502.618 193.25 502.618 195.829ZM374.806 480.239C374.445 483.997 373.811 487.724 372.909 491.391C372.605 492.68 370.859 496.853 371.163 498.37C371.694 500.798 371.011 499.28 373.136 500.494C375.413 501.86 377.994 501.784 380.422 502.163C381.94 502.391 387.481 505.046 388.468 504.591C390.137 503.832 390.062 501.329 391.807 500.342C394.236 498.977 397.879 500.115 400.156 501.253C406.304 504.136 410.554 510.053 416.55 513.315C427.176 519.081 439.699 522.267 451.539 523.632C457.914 524.315 464.517 525.605 470.817 524.088C475.826 522.874 482.277 523.025 485.01 517.639C460.95 511.039 424.216 502.922 414.728 475.308C409.567 480.011 400.915 477.508 394.691 476.825C387.785 476.142 381.637 476.294 375.413 473.184C374.91 475.5 374.706 477.871 374.806 480.239ZM161.837 309.32C173.145 310.003 183.923 304.616 190.906 295.589C192.651 293.389 194.397 291.113 195.384 288.458C195.611 287.775 195.839 287.092 196.067 286.485C197.129 284.664 196.674 283.754 194.625 283.906C193.486 282.313 190.602 281.782 191.437 278.975C192.044 276.851 194.321 276.775 196.37 276.092C195.562 274.632 194.539 273.302 193.334 272.147C189.615 275.485 182.936 281.933 180.356 274.347C179.141 270.706 181.267 267.216 180.735 263.65C180.508 262.209 178.686 258.492 177.623 257.581C171.931 252.954 163.658 254.85 157.662 257.581C153.488 259.478 152.577 260.388 151.894 264.637C151.211 269.037 150.528 273.437 149.769 277.837C152.274 276.547 152.729 273.74 154.399 271.692C155.006 272.83 155.613 273.892 156.22 275.03C156.587 274.8 157.014 274.684 157.446 274.697C157.879 274.711 158.298 274.853 158.649 275.106C159.863 276.926 159.104 279.733 158.725 281.63C162.747 281.251 164.493 285.727 160.395 287.547C156.22 289.444 154.323 284.285 154.171 280.947C152.577 282.844 150.983 281.782 149.921 282.768C148.858 283.754 148.403 285.727 148.023 287.927C147.416 291.568 145.746 296.727 147.264 300.368C149.389 305.83 156.524 308.637 161.837 309.32ZM490.019 136.353C486.3 141.587 479.849 148.415 478.558 154.711C482.657 152.284 491.385 140.677 493.662 149.932C494.952 155.242 488.349 161.615 486.679 166.774C493.207 164.649 497.836 157.898 501.859 152.739C507.02 146.139 512.333 137.415 513.623 129.07C513.888 127.458 513.819 125.81 513.421 124.226C513.022 122.642 512.302 121.157 511.306 119.863C510.31 118.568 509.059 117.492 507.629 116.701C506.2 115.91 504.624 115.42 502.998 115.263C499.372 115.047 495.734 115.406 492.22 116.325C490.626 116.704 488.273 117.159 486.907 117.994C485.162 119.056 484.934 121.559 483.264 119.435L476.661 131.952C478.862 131.118 483.34 127.78 485.769 128.083C489.26 128.615 489.943 133.773 490.019 136.353ZM139.143 34.4687C129.141 34.8758 119.25 36.7153 109.771 39.9309C107.494 40.6895 97.703 43.4206 99.7522 47.4413C101.118 50.0965 108.405 46.3792 110.606 45.6964C120.093 43.0412 129.808 41.2964 139.523 39.7033C141.876 39.324 149.845 39.324 150.224 36.2894C150.756 32.5722 141.876 34.4687 139.143 34.4687ZM406.531 462.942C401.28 463.511 395.978 463.435 390.745 462.714C386.267 462.183 381.713 460.363 377.235 460.363C377.235 465.142 376.931 465.142 381.94 466.204C385.432 466.887 388.999 467.342 392.566 467.797C398.79 468.708 405.772 471.135 412.148 469.846C411.996 469.011 411.541 463.397 410.858 462.866C410.478 462.563 407.063 462.942 406.531 462.942ZM320.463 109.573C321.981 110.483 325.397 114.276 327.142 114.352C326.535 109.952 321.602 102.366 315.985 105.021C314.619 105.704 311.735 108.966 313.025 110.407C313.708 111.318 318.642 109.573 320.463 109.573ZM268.549 148.566C268.625 147.808 268.625 147.049 268.701 146.291C266.652 147.504 264.071 148.111 262.629 150.008C264.375 150.766 266.12 151.601 267.866 152.36C268.094 151.07 268.321 149.78 268.549 148.566ZM430.667 264.788C440.382 268.202 449.338 272.754 456.472 280.492C462.696 287.168 465.58 298.927 467.098 307.651C470.817 329.272 463.607 349.375 458.901 370.086C456.472 380.631 452.905 390.721 449.49 400.962C446.53 409.914 444.025 419.245 439.926 427.742C436.511 434.949 432.109 442.08 429.073 449.514C427.403 453.535 424.823 467.342 418.599 463.018C416.929 467.418 416.474 467.039 418.296 470.149C419.586 472.349 424.064 475.459 426.113 477.28C431.729 482.135 438.788 486.08 445.315 489.418C457.307 495.639 470.134 500.191 482.505 505.88C487.97 508.384 493.89 511.343 492.675 518.474C492.234 521.312 491.104 523.999 489.384 526.3C487.664 528.601 485.406 530.446 482.809 531.674C477.724 534.177 470.513 536.074 464.897 536.908C461.557 537.364 460.798 535.998 458.142 535.543C455.106 535.012 451.615 536.074 448.503 535.998C434.614 535.846 422.394 532.357 411.161 524.315C407.139 521.432 401.219 513.618 395.982 513.618C393.325 513.618 393.856 515.287 391.504 516.198C388.619 517.412 383.534 515.136 380.726 514.605C374.654 513.467 368.431 512.329 364.332 507.094C359.93 501.405 361.524 494.349 363.421 488.053C365.547 480.922 369.114 473.715 370.632 466.508C371.113 464.265 371.215 461.957 370.935 459.68C370.328 456.873 367.52 455.28 367.444 452.245C367.444 451.335 368.734 450.121 368.962 449.211C369.493 447.163 369.417 444.963 369.569 442.914C369.949 439.121 370.783 435.556 371.391 431.838C372.757 423.418 375.413 415.831 377.994 407.714C380.498 399.824 382.851 393.907 387.709 387.079C390.213 383.514 398.562 370.92 394.464 367.279C388.923 378.203 382.396 386.776 373.819 395.5C367.292 402.176 360.917 411.128 352.72 415.907C343.764 421.142 332.759 424.176 322.816 426.983C318.11 428.273 314.164 431.231 309.079 431.762C303.526 432.256 297.929 431.794 292.533 430.397C291.015 430.018 286.613 427.742 285.247 427.893C283.197 428.121 280.313 431.687 278.112 432.369C272.723 433.962 269.004 430.928 264.906 428.045C260.428 424.935 259.138 424.176 253.977 423.797C247.677 423.342 241.529 421.142 235.382 419.776C224.528 417.424 215.269 412.569 205.326 407.486C194.017 401.721 184.302 393.679 175.726 384.196C163.127 370.314 145.67 331.775 166.163 318.272C154.095 316.603 143.014 311.368 141.572 297.713C140.813 290.582 142.255 282.616 144.077 275.713C144.911 272.526 145.898 269.416 146.809 266.306C147.49 265.263 147.883 264.059 147.947 262.816C148.403 261.223 147.72 260.388 146.05 260.388C142.862 256.671 140.509 253.409 139.826 248.099C139.599 246.43 139.447 243.85 140.661 242.409C141.174 241.82 141.868 241.42 142.635 241.271C144.532 241.347 145.063 240.436 144.228 238.54C145.139 235.809 143.773 233.609 147.188 232.471C148.251 232.698 149.389 232.926 150.452 233.229C151.818 233.836 152.729 233.381 153.184 231.864C156.372 230.574 154.93 228.753 159.256 230.347C161.94 231.351 164.355 232.96 166.315 235.05C168.743 233.533 163.203 223.898 163.051 220.864C162.596 213.657 165.632 207.74 169.502 201.822C177.016 190.291 187.566 180.429 197.888 171.553C217.773 154.484 238.645 138.325 261.035 124.746C251.776 118.297 240.998 116.552 229.993 119.587C219.823 122.318 211.626 127.325 202.29 131.725C193.638 135.746 184.454 137.415 181.722 126.415C178.61 114.049 188.477 109.421 197.357 103.883C195.156 102.214 187.87 103.428 185.137 103.58C178.99 104.035 173.145 105.4 167.225 106.614C164.341 107.221 161.761 107.069 158.953 107.676C154.778 108.511 150.376 109.497 146.126 110.711C135.855 113.57 126.097 118.025 117.209 123.911C109.619 128.994 104.382 136.277 98.3102 142.877C91.3276 150.463 84.7245 157.898 74.4024 160.705C69.5449 161.994 63.9285 163.208 60.5131 158.884C57.3253 154.863 57.1736 150.084 57.2495 145.153C57.4771 134.304 62.7141 122.621 68.7859 113.821C75.389 104.263 84.1932 98.7246 92.5419 90.9866C80.4742 91.821 68.7859 98.1935 57.7048 102.594C55.352 103.504 52.9992 104.566 50.6463 105.4C48.1417 106.311 46.472 105.78 44.1191 106.159C38.6545 107.145 33.9488 109.421 28.636 105.78C18.5415 98.8004 28.636 84.6899 35.6186 80.2899C45.1847 74.2507 55.2681 69.0718 65.75 64.8139C59.9818 58.5931 64.9151 49.6413 70.228 45.2413C76.9829 39.6274 85.4835 36.4412 93.6045 33.4067C99.9799 31.0549 106.279 28.779 112.958 27.3376C119.941 25.8204 128.138 23.5445 135.197 23.7721C141.876 23.9997 147.72 22.7859 154.475 22.6341C160.091 22.4824 165.707 22.6341 171.324 22.4824C186.428 22.1031 201.531 23.0893 216.331 24.2273C204.643 -9.91103 281.603 0.633906 298.073 5.10981C313.025 9.13055 330.102 13.834 342.625 23.4686C347.924 27.6392 352.967 32.1232 357.729 36.8964C364.712 43.8757 368.507 53.131 372.226 62.1587C381.561 57.6069 390.441 52.6 400.687 50.3241C410.402 48.1999 420.345 45.2413 430.136 43.6481C437.574 42.4343 448.351 41.5998 454.575 46.8344C461.33 52.5241 464.897 61.4 468.919 68.9863C488.349 50.5517 510.056 37.0481 537.835 37.9584C565.006 38.8688 582.842 62.2345 586.106 87.6486C589.749 115.642 577.226 144.849 560.376 166.546C552.787 176.256 544.969 185.663 534.723 192.87C529.638 196.436 524.325 200.381 518.784 203.188C515.95 204.596 513.035 205.837 510.056 206.905C508.742 207.415 507.399 207.845 506.033 208.195C502.163 209.105 502.922 207.891 501.48 211.305C500.341 214.036 500.417 218.815 499.962 221.85C499.354 225.34 499.051 228.829 498.216 232.243C496.774 238.16 495.256 243.926 493.434 249.768C489.962 260.88 485.358 271.608 479.697 281.782C484.478 283.906 491.233 284.058 496.394 284.74C502.119 285.567 507.776 286.81 513.32 288.458C524.932 291.72 535.254 294.451 546.335 299.306C557.796 304.313 567.966 311.899 579.047 317.892C589.217 323.43 599.464 330.334 608.875 336.934C610.879 338.335 612.691 339.993 614.264 341.865C615.633 343.41 617.159 344.808 618.818 346.037C619.804 346.796 622.688 350.817 623.751 350.969C625.724 351.272 625.421 349.755 627.015 347.631C630.278 343.231 634.908 339.893 638.172 335.417C640.822 331.685 643.659 328.09 646.672 324.644C653.667 316.831 659.682 308.195 664.584 298.927C667.165 294.071 669.973 289.444 672.781 284.892C675.589 280.34 680.599 274.347 686.215 274.575C685.76 272.223 684.318 271.844 686.822 270.478C688.416 269.568 691.528 271.009 692.742 271.995C696.006 274.423 696.158 279.202 695.93 282.844C695.327 292.049 693.594 301.145 690.769 309.927C687.505 320.396 683.483 329.727 679.005 339.741C675.437 347.706 671.111 358.251 662.307 361.969C668.227 370.389 665.343 377.217 661.396 386.169C658.512 392.693 654.717 399.445 648.949 403.769C642.422 408.624 635.363 404.528 628.533 401.266C624.434 399.293 611.759 394.741 614.34 388.748C611.152 388.293 609.179 386.017 606.37 385.334C603.334 384.576 603.866 385.79 600.602 386.321C598.173 386.7 594.454 384.5 592.102 383.665C588.231 382.376 584.36 381.01 580.489 379.645C569.56 375.927 558.858 372.21 547.853 369.176C527.361 363.562 506.641 360.376 486.224 355.444C482.126 354.458 478.103 353.472 473.777 352.713C472.866 352.562 468.312 352.258 467.781 351.348C466.794 349.679 469.83 340.499 470.058 338.603C471.667 325.924 471.257 313.07 468.843 300.52C467.857 295.437 463.455 288.913 463.531 283.906C463.531 280.568 466.491 276.926 468.236 273.968C472.487 266.533 476.965 258.492 480.152 250.754C485.01 238.919 487.97 225.567 490.095 212.898C491.233 206.298 492.524 199.091 492.827 192.415C493.055 187.332 492.675 181.946 493.358 176.712C490.55 177.015 486.528 178.456 484.023 176.863C480.835 174.891 479.925 169.277 480.38 165.863C469.375 167.76 469.754 157.367 470.437 149.173C450.552 149.173 475.978 119.663 479.166 113.29C480.608 110.407 480.608 113.67 479.925 109.118C479.621 107.145 478.255 104.945 477.496 103.125C475.826 99.1797 474.005 95.2349 472.107 91.3659C468.016 83.2273 463.428 75.348 458.37 67.7725C453.868 70.9621 449.72 74.6244 445.998 78.6968C448.427 72.3243 455.865 64.5104 452.677 57.3035C449.717 50.6275 439.926 51.0827 434.082 52.2965C418.296 55.6345 403.192 60.4897 388.164 66.0277C392.794 68.6829 399.928 66.6346 404.558 64.5863C410.25 62.0828 416.474 59.4276 422.622 58.0621C428.01 56.9241 435.069 57.3035 433.551 64.5104C432.261 70.3519 426.568 76.0416 422.773 80.4416C414.425 90.0762 403.951 97.5866 393.629 105.097C382.548 113.139 371.922 121.863 360.689 129.677C340.424 143.787 318.718 156.077 297.77 169.201C286.916 176.029 274.621 181.567 262.781 186.65C249.802 192.263 237.355 198.181 223.921 202.581C216.483 205.008 209.045 207.057 201.683 209.864C197.053 211.608 189.084 215.098 186.048 209.939C179.9 199.395 202.214 185.588 208.362 179.139C212.612 183.236 191.74 198.484 193.41 204.477C194.7 209.181 199.634 203.112 202.063 201.822C205.933 199.774 210.487 198.712 214.358 196.36C222.327 191.505 231.739 185.967 233.56 175.953C232.27 174.587 232.346 173.374 233.636 172.236C234.232 171.571 234.696 170.798 235.002 169.96C235.473 168.241 235.828 166.492 236.065 164.725C236.976 159.794 234.699 155.167 236.824 150.387C224.528 159.718 212.764 170.187 201.076 180.277C190.602 189.305 179.673 201.139 175.878 214.643C175.422 216.388 174.588 218.36 174.663 220.181C174.815 223.747 175.195 222.988 178.079 224.126C180.963 225.264 185.137 225.188 188.249 225.264C189.995 225.34 197.888 223.443 196.37 227.312C195.459 229.512 189.995 229.436 188.021 229.664C183.088 230.195 180.432 229.664 182.784 234.974C183.847 237.326 185.972 238.995 187.642 240.816C192.272 245.974 194.776 253.864 198.419 259.857C202.594 266.761 207.148 273.285 211.929 279.733C213.903 282.389 216.559 287.32 219.367 289.216C221.948 290.961 218.912 290.809 223.238 290.127C225.135 289.823 226.805 288.609 228.627 288.154C239.328 285.575 250.334 282.616 261.415 279.43C275.532 275.333 290.408 271.844 303.917 265.926C315.985 260.616 327.977 254.319 340.197 248.933C343.764 247.34 347.331 246.354 350.139 243.471C353.479 239.981 356.287 235.429 359.323 231.712C364.56 225.34 369.417 218.891 375.034 212.822C379.208 208.346 386.722 200.001 392.642 198.181C403.951 194.767 397.879 211.912 396.437 216.312C399.093 216.919 400.46 213.505 403.571 214.491C407.29 215.629 407.67 220.636 408.125 223.747C408.277 224.581 407.139 226.098 407.442 226.857C407.594 227.085 410.023 228.526 410.478 229.209C412.148 231.636 411.844 234.595 411.237 237.174C407.898 250.678 396.057 260.54 387.329 270.554C391.2 269.795 394.16 267.595 397.803 266.457C401.294 265.395 404.71 265.471 408.201 265.168C411.844 264.864 415.336 263.499 419.055 263.423C423.077 263.195 426.796 264.333 430.667 264.788Z" fill="#2C056A"/>
    <path fill-rule="evenodd" clip-rule="evenodd" d="M18.0106 143.256C15.8855 144.697 15.2783 146.063 15.2024 149.249C15.2024 150.615 15.2783 155.546 17.0998 155.318C18.8455 155.166 18.0106 144.925 18.0106 143.256ZM6.92951 151.297C7.91618 140.904 11.7111 130.359 20.667 123.835C22.8681 122.242 25.3727 122.318 27.8014 121.256C29.2435 120.649 31.5963 117.842 33.1902 118.145C39.262 119.359 32.2794 127.477 31.2168 129.601C28.0291 136.201 28.2568 141.966 28.3327 149.097C28.4086 154.484 29.5471 163.587 26.8147 168.518C23.9306 173.753 17.6311 170.339 14.0639 167.229C9.66183 163.436 6.32233 157.215 6.92951 151.297Z" fill="#2C056A"/>
    <path fill-rule="evenodd" clip-rule="evenodd" d="M113.868 182.022C113.868 187.788 118.574 183.919 118.422 179.746C118.195 173.677 113.641 177.47 113.868 182.022ZM138.915 149.932C133.754 154.56 129.807 157.139 128.82 164.27C128.061 169.656 128.82 175.043 128.82 180.429C128.896 189.532 121.534 199.091 113.565 188.698C107.797 181.112 109.846 169.125 114.552 161.463C117.081 157.255 120.532 153.675 124.646 150.994C127.758 149.097 136.334 145.38 138.915 149.932Z" fill="#2C056A"/>
    <path fill-rule="evenodd" clip-rule="evenodd" d="M66.8878 290.43C66.2807 291.871 64.9145 297.637 67.7227 296.272C70.3032 295.134 68.6335 291.34 66.8878 290.43ZM51.7842 272.602C51.3288 270.402 51.5565 256.823 55.2755 257.885C58.2355 258.719 58.6909 265.623 59.9052 268.051C64.3832 277.078 74.6294 282.692 78.1207 292.023C82.0674 302.416 70.1514 302.72 63.776 298.547C56.338 293.54 52.0119 281.327 51.7842 272.602Z" fill="#2C056A"/>
    <path fill-rule="evenodd" clip-rule="evenodd" d="M42.6003 216.843C44.1942 214.643 44.4219 213.505 43.4352 211.533C42.2968 212.822 42.5244 214.643 42.6003 216.843ZM43.7388 226.629C35.2383 227.616 34.8588 211.988 36.3008 206.602C37.6315 202.146 39.7383 197.96 42.5244 194.236C43.0557 193.553 47.9132 187.257 48.8999 187.181C52.6189 187.105 51.5563 191.277 51.1768 192.87C49.8801 197.558 49.3924 202.433 49.7347 207.284C50.1142 213.05 52.8466 226.857 43.7388 226.629Z" fill="#2C056A"/>
    <path fill-rule="evenodd" clip-rule="evenodd" d="M428.845 91.366C416.701 101.532 405.241 112.532 392.035 121.408C385.583 125.732 378.828 129.601 372.377 134.001C369.148 136.279 365.718 138.259 362.131 139.918C358.943 141.36 356.818 141.587 359.474 138.097C361.22 135.746 365.243 134.153 367.671 132.484C371.39 129.98 374.958 127.097 378.828 124.897C385.735 120.952 392.642 117.69 399.017 112.835C404.71 108.511 410.554 104.263 415.942 99.7109C418.295 97.8143 425.961 88.7108 428.845 91.366Z" fill="#2C056A"/>
    <path fill-rule="evenodd" clip-rule="evenodd" d="M429.073 128.083C434.538 132.711 420.876 145.532 417.764 148.415C414.501 151.449 410.858 154.18 407.291 156.911C406 157.898 399.17 164.27 397.424 163.739C394.008 162.753 398.486 158.58 399.701 157.518C403.496 154.029 407.367 150.615 411.085 147.049C414.425 143.787 418.068 140.828 421.256 137.49C423.912 134.684 426.113 130.132 429.073 128.083Z" fill="#2C056A"/>
    <path fill-rule="evenodd" clip-rule="evenodd" d="M25.0689 315.996C23.6268 312.734 21.1222 316.375 22.4125 317.968C23.6268 319.561 24.8412 316.678 25.0689 315.996ZM16.7201 309.472C17.4791 304.616 19.2247 301.961 23.7786 306.058C26.8904 308.865 33.1899 316.982 32.5828 321.382C31.8238 327.148 25.4484 325.554 22.1089 322.52C18.7694 319.485 17.2514 313.796 16.7201 309.472Z" fill="#2C056A"/>
    <path fill-rule="evenodd" clip-rule="evenodd" d="M26.6629 404.907C21.1224 404.452 16.3408 400.203 13.988 395.197C12.0146 390.948 10.1172 384.196 17.0998 386.396C21.6537 387.838 39.262 405.59 26.6629 404.907Z" fill="#2C056A"/>
    <path fill-rule="evenodd" clip-rule="evenodd" d="M94.2115 377.445C89.8853 378.431 85.6351 375.624 82.9786 372.362C81.3089 370.389 77.514 363.41 79.4114 360.527C82.1438 356.507 86.1664 364.548 87.6084 366.141C89.8094 368.72 97.0197 373.5 94.2115 377.445Z" fill="#2C056A"/>
    <path fill-rule="evenodd" clip-rule="evenodd" d="M98.1574 268.43C94.8179 266.837 91.6302 264.94 90.264 261.223C89.4291 258.871 88.6702 251.664 92.541 251.74C96.943 251.74 107.113 267.671 98.1574 268.43Z" fill="#2C056A"/>
    <path fill-rule="evenodd" clip-rule="evenodd" d="M74.4779 194.084C79.0318 194.008 80.0944 196.512 80.7015 200.077C81.1569 202.505 83.2062 210.774 81.081 212.443C78.0451 214.871 73.1117 209.333 72.1251 207.133C69.9999 202.657 72.8082 198.257 74.4779 194.084Z" fill="#2C056A"/>
    <path fill-rule="evenodd" clip-rule="evenodd" d="M152.12 441.473C154.321 442.459 159.33 444.659 157.433 448.149C155.46 451.79 149.691 448.225 147.566 446.708C146.655 446.025 140.963 441.701 141.191 440.259C141.722 437.149 149.54 441.17 152.12 441.473Z" fill="#2C056A"/>
    <path fill-rule="evenodd" clip-rule="evenodd" d="M7.08047 216.464C8.59843 220.257 10.2682 233.154 2.37481 226.174C-0.0539239 224.05 -0.433413 221.395 0.401463 218.436C1.61583 214.188 3.36148 215.022 7.08047 216.464Z" fill="#2C056A"/>
    <path fill-rule="evenodd" clip-rule="evenodd" d="M426.947 168.291C425.202 164.725 429.528 162.374 431.805 160.098C433.323 158.58 439.698 150.387 441.747 150.842C446.074 151.753 429.073 166.698 426.947 168.291Z" fill="#2C056A"/>
    <path fill-rule="evenodd" clip-rule="evenodd" d="M74.402 427.742C78.5004 427.059 79.4871 431.687 82.1435 433.659C83.282 434.493 87.2287 435.252 86.3938 437.073C84.3446 441.928 74.1743 431.004 74.402 427.742Z" fill="#2C056A"/>
    <path fill-rule="evenodd" clip-rule="evenodd" d="M109.315 319.409C112.123 318.196 120.396 324.644 117.967 327.375C114.476 331.472 109.467 321.609 109.315 319.409Z" fill="#2C056A"/>
    <path fill-rule="evenodd" clip-rule="evenodd" d="M169.198 411.735C167.149 411.962 158.421 409.231 161.608 405.514C163.885 402.935 169.957 409.459 169.198 411.735Z" fill="#2C056A"/>
    <path fill-rule="evenodd" clip-rule="evenodd" d="M64.5344 394.135C62.4851 394.969 55.0471 393.3 57.4 390.038C59.601 387.004 64.5344 391.555 64.5344 394.135Z" fill="#2C056A"/>
    <path fill-rule="evenodd" clip-rule="evenodd" d="M125.253 408.017C125.794 407.941 126.344 407.976 126.871 408.121C127.398 408.265 127.889 408.515 128.316 408.856C128.742 409.197 129.095 409.622 129.351 410.104C129.607 410.586 129.763 411.115 129.807 411.659C126.771 412.114 125.86 411.355 125.253 408.017Z" fill="#2C056A"/>
    <path fill-rule="evenodd" clip-rule="evenodd" d="M214.888 15.8064L214.66 20.3582L214.888 15.8064Z" fill="#2C056A"/>
    <path fill-rule="evenodd" clip-rule="evenodd" d="M685.227 273.74C685.683 275.409 685 275.713 683.102 274.575C683.785 274.271 684.544 273.968 685.227 273.74Z" fill="#2C056A"/>
    <path fill-rule="evenodd" clip-rule="evenodd" d="M497.913 283.982C496.622 284.968 495.408 285.12 494.118 283.906C495.332 283.906 496.622 283.982 497.913 283.982Z" fill="#2C056A"/>
    <path fill-rule="evenodd" clip-rule="evenodd" d="M469.45 154.635C469.45 155.925 469.374 157.139 469.374 158.429C469.45 157.139 469.45 155.849 469.45 154.635Z" fill="#2C056A"/>
    <path fill-rule="evenodd" clip-rule="evenodd" d="M535.102 37.5791H531.307C532.531 37.1239 533.878 37.1239 535.102 37.5791Z" fill="#2C056A"/>
    <path fill-rule="evenodd" clip-rule="evenodd" d="M163.961 22.1031C162.671 22.179 161.457 22.2549 160.166 22.3307C161.381 22.2549 162.671 22.179 163.961 22.1031Z" fill="#2C056A"/>
    <path fill-rule="evenodd" clip-rule="evenodd" d="M195.08 22.3307C194.094 22.2549 193.031 22.179 192.044 22.1031C193.031 22.179 194.018 22.2549 195.08 22.3307Z" fill="#2C056A"/>
    <path fill-rule="evenodd" clip-rule="evenodd" d="M211.778 23.5444C211.309 23.7874 210.788 23.9143 210.26 23.9143C209.731 23.9143 209.211 23.7874 208.742 23.5444H211.778Z" fill="#2C056A"/>
    <path fill-rule="evenodd" clip-rule="evenodd" d="M121.459 25.6687C120.168 25.8963 118.954 26.1997 117.664 26.4273C118.878 26.1239 120.168 25.8963 121.459 25.6687Z" fill="#2C056A"/>
    <path fill-rule="evenodd" clip-rule="evenodd" d="M470.209 334.43C470.209 335.189 470.134 335.948 470.134 336.706C470.209 335.948 470.209 335.189 470.209 334.43Z" fill="#2C056A"/>
    <path fill-rule="evenodd" clip-rule="evenodd" d="M52.0127 272.981C52.0001 273.488 52.0255 273.996 52.0886 274.499C52.0273 273.995 52.002 273.488 52.0127 272.981Z" fill="#2C056A"/>
    <path fill-rule="evenodd" clip-rule="evenodd" d="M689.934 270.25H686.139C686.681 269.826 687.349 269.596 688.037 269.596C688.724 269.596 689.393 269.826 689.934 270.25Z" fill="#2C056A"/>
    <path fill-rule="evenodd" clip-rule="evenodd" d="M430.362 264.864C429.376 264.712 428.313 264.561 427.326 264.333C428.313 264.561 429.3 264.712 430.362 264.864Z" fill="#2C056A"/>
    <path fill-rule="evenodd" clip-rule="evenodd" d="M152.577 441.397C151.287 441.169 150.073 440.866 148.782 440.638L152.577 441.397Z" fill="#2C056A"/>
    <path fill-rule="evenodd" clip-rule="evenodd" d="M407.974 223.671C407.974 222.912 407.898 222.153 407.898 221.395C407.974 222.153 407.974 222.912 407.974 223.671Z" fill="#2C056A"/>
    <path fill-rule="evenodd" clip-rule="evenodd" d="M167.757 22.3308C166.998 22.2549 166.239 22.1791 165.48 22.0273C166.239 22.1791 166.998 22.2549 167.757 22.3308Z" fill="#2C056A"/>
    <path fill-rule="evenodd" clip-rule="evenodd" d="M292.23 3.59268L289.953 2.90991L292.23 3.59268Z" fill="#2C056A"/>
    <path fill-rule="evenodd" clip-rule="evenodd" d="M382.548 515.288C383.079 515.288 383.534 515.363 384.065 515.363C383.534 515.363 383.003 515.288 382.548 515.288Z" fill="#2C056A"/>
    <path fill-rule="evenodd" clip-rule="evenodd" d="M34.1768 107.904C34.9358 107.904 35.6947 107.98 36.4537 107.98C35.6947 107.98 34.9358 107.904 34.1768 107.904Z" fill="#2C056A"/>
    <path fill-rule="evenodd" clip-rule="evenodd" d="M543.451 38.2619C542.16 38.1861 540.946 38.1102 539.656 37.9585C540.87 38.1102 542.16 38.1861 543.451 38.2619Z" fill="#2C056A"/>
    <path fill-rule="evenodd" clip-rule="evenodd" d="M502.011 191.05C502.011 192.339 502.087 193.553 502.087 194.843C502.087 193.553 502.087 192.263 502.011 191.05Z" fill="#2C056A"/>
    <path fill-rule="evenodd" clip-rule="evenodd" d="M409.111 462.639C408.124 462.639 407.062 462.639 406.075 462.563C407.062 462.563 408.124 462.639 409.111 462.639Z" fill="#2C056A"/>
    <path fill-rule="evenodd" clip-rule="evenodd" d="M516.886 60.7172C518.404 60.5655 519.922 60.4137 521.44 60.1862C519.998 61.4758 518.404 60.6413 516.886 60.7172Z" fill="#2C056A"/>
    <path fill-rule="evenodd" clip-rule="evenodd" d="M400.762 463.018C400.003 463.018 399.245 462.942 398.486 462.942C399.245 462.942 400.003 463.018 400.762 463.018Z" fill="#2C056A"/>
    <path fill-rule="evenodd" clip-rule="evenodd" d="M374.503 476.294C374.503 477.584 374.579 478.797 374.655 480.087C374.579 478.797 374.579 477.508 374.503 476.294Z" fill="#2C056A"/>
    <path fill-rule="evenodd" clip-rule="evenodd" d="M490.323 107.297C491.31 107.221 492.372 107.145 493.359 106.994C492.448 107.676 491.31 107.297 490.323 107.297Z" fill="#2C056A"/>
    <path fill-rule="evenodd" clip-rule="evenodd" d="M158.65 309.092C159.636 309.244 160.699 309.472 161.686 309.623C160.623 309.472 159.636 309.244 158.65 309.092Z" fill="#2C056A"/>
    <path fill-rule="evenodd" clip-rule="evenodd" d="M316.515 109.497C317.806 108.435 319.02 108.511 320.31 109.497H316.515Z" fill="#2C056A"/>
    <path fill-rule="evenodd" clip-rule="evenodd" d="M269.004 147.808C269.004 147.277 269.08 146.822 269.08 146.291C269.09 146.797 269.065 147.304 269.004 147.808Z" fill="#2C056A"/>
    <path fill-rule="evenodd" clip-rule="evenodd" d="M155.082 291.947C156.751 292.478 160.091 294.223 162.064 293.996C163.582 293.844 164.872 291.947 166.39 291.947C170.413 291.947 169.654 296.651 167.757 299.078C162.444 305.83 150.604 298.547 155.082 291.947Z" fill="#2C056A"/>
    <path fill-rule="evenodd" clip-rule="evenodd" d="M171.551 267.671C177.016 269.113 174.284 281.175 169.654 282.009C164.189 282.995 163.279 273.133 164.341 269.568C167.149 271.237 165.404 277.154 168.971 275.561C171.172 274.499 170.868 269.644 171.551 267.671Z" fill="#2C056A"/>
</svg>
